<?xml version="1.0" encoding="UTF-8"?>
<svg version="1.1" xmlns="http://www.w3.org/2000/svg" width="50" height="50">
<path d="M0 0 C2.375 1.875 2.375 1.875 4 4 C4 4.66 4 5.32 4 6 C4.62648438 5.97679687 5.25296875 5.95359375 5.8984375 5.9296875 C6.71570312 5.91164063 7.53296875 5.89359375 8.375 5.875 C9.18710937 5.85179687 9.99921875 5.82859375 10.8359375 5.8046875 C13 6 13 6 15 8 C15.125 11.625 15.125 11.625 15 15 C16.98 14.67 18.96 14.34 21 14 C20.7215625 14.86625 20.7215625 14.86625 20.4375 15.75 C19.81746343 17.96263339 19.81746343 17.96263339 20.62109375 19.890625 C21 22 21 22 20.1015625 24 C16.15609425 29.34412631 12.60708435 32.62888003 6 34 C-5.76526434 35.23294466 -16.90723459 34.72851027 -27 28 C-26.82597656 27.43410156 -26.65195312 26.86820313 -26.47265625 26.28515625 C-25.95755086 23.79477067 -26.0933878 21.94824456 -26.4375 19.4375 C-26.77612876 16.89564107 -27 14.57385756 -27 12 C-24.83125748 12.50603992 -23.00032373 12.99983813 -21 14 C-21.04125 13.05125 -21.0825 12.1025 -21.125 11.125 C-21 8 -21 8 -19 6 C-16.8359375 5.8046875 -16.8359375 5.8046875 -14.375 5.875 C-13.14910156 5.90207031 -13.14910156 5.90207031 -11.8984375 5.9296875 C-10.95871094 5.96449219 -10.95871094 5.96449219 -10 6 C-9.71125 5.195625 -9.4225 4.39125 -9.125 3.5625 C-7.2146361 -0.78888444 -4.41969768 -0.44196977 0 0 Z M-6.75 4.5 C-8.58455926 8.16911851 -8.26371521 10.9124143 -8 15 C-7.67 15.66 -7.34 16.32 -7 17 C-3.71585695 17.95067299 -2.30306592 18.10102197 1 17 C2.5940391 13.81192179 2.38396187 10.46936973 2 7 C0.93190172 4.4595774 0.93190172 4.4595774 -1 3 C-4.87797662 2.56613908 -4.87797662 2.56613908 -6.75 4.5 Z M-17 9 C-17.33 10.65 -17.66 12.3 -18 14 C-14.94419026 16.58777208 -14.94419026 16.58777208 -11 17 C-10.95758277 14.66705225 -10.95907063 12.33297433 -11 10 C-12.06645115 8.70366379 -12.06645115 8.70366379 -14.5625 8.9375 C-15.366875 8.958125 -16.17125 8.97875 -17 9 Z M5 10 C5 12.31 5 14.62 5 17 C6.99954746 17.04254356 9.00041636 17.04080783 11 17 C12.41577477 15.81575674 12.41577477 15.81575674 12.0625 12.4375 C12.041875 11.303125 12.02125 10.16875 12 9 C8.37114676 8.84850702 8.37114676 8.84850702 5 10 Z M-19 19 C-18.01 19.33 -17.02 19.66 -16 20 C-16 20.99 -16 21.98 -16 23 C-18.97 22.505 -18.97 22.505 -22 22 C-20.49364535 26.21779303 -17.75987578 27.7747674 -14 30 C-8.72311279 31.7589624 -2.77750119 31.99382465 2.5 30.10546875 C4.37907267 29.15586595 6.197652 28.08821011 8 27 C8 27.66 8 28.32 8 29 C13.01113235 27.5682479 14.94469549 25.01554307 18 21 C17.505 20.01 17.505 20.01 17 19 C15.3603125 19.8971875 15.3603125 19.8971875 13.6875 20.8125 C5.86348915 24.71068209 -2.34724291 26.29075762 -11 27 C-10.67 26.34 -10.34 25.68 -10 25 C-7.53270874 24.41114767 -5.12110058 23.92220289 -2.625 23.5 C2.96142802 22.56187328 2.96142802 22.56187328 8 20 C-0.91 19.67 -9.82 19.34 -19 19 Z " fill="#DDC693" transform="translate(28,8)"/>
</svg>
